/* XPM */
static char *deaf50db03a64093ab1cc3954f1ea26885JORWCoWrAHiAZx[] = {
/* columns rows colors chars-per-pixel */
"64 64 4 1 ",
"  c #020202",
". c #161008",
"X c #FE0C0C",
"o c #9A692D",
/* pixels */
"oooooooooooooooooooooooooooooooooooooooooooooooooooooooooooooooo",
"oooooooooooooooooooooooooooooooooooooooooooooooooooooooooooooooo",
"oooooooooooooooooooooooooooooooooooooooooooooooooooooooooooooooo",
"oooooooooooooooooooooooooooooooooooooooooooooooooooooooooooooooo",
"oooooooooooooooooooooooooooooooooooooooooooooooooooooooooooooooo",
"oooooooooooooooooooooooooooooooooooooooooooooooooooooooooooooooo",
"oooooooooooooooooooooooooooooooooooooooooooooooooooooooooooooooo",
"oooooooooooooooooooooooooooooooooooooooooooooooooooooooooooooooo",
"oooooooooooooooooooooooooooooooooooooooooooooooooooooooooooooooo",
"oooooooooooooooooooooooooooooooooooooooooooooooooooooooooooooooo",
"oooooooooooooooooooooooooooooooooooooooooooooooooooooooooooooooo",
"oooooooooooooooooooooooooooooooooooooooooooooooooooooooooooooooo",
"oooooooooooooooooooooooooooooooooooooooooooooooooooooooooooooooo",
"oooooooooooooooooooooooooooooooooooooooooooooooooooooooooooooooo",
"oooooooooooooooooooooooooooooooooooooooooooooooooooooooooooooooo",
"oooooooooooooooooooooooooooooooooooooooooooooooooooooooooooooooo",
"oooooooooooooooooooooooooooooooooooooooooooooooooooooooooooooooo",
"oooooooooooooooooooooooooooooooooooooooooooooooooooooooooooooooo",
"oooooooooooooooooooooooooo..oooooooo..oooooooooooooooooooooooooo",
"oooooooooooooooooooooooooo..oooooooo..oooooooooooooooooooooooooo",
"oooooooooooooooooooooooooo............oooooooooooooooooooooooooo",
"oooooooooooooooooooooooooo.          .oooooooooooooooooooooooooo",
"ooooooo......ooooooooooooo. XXX  XXX .ooooooooooooo.......oooooo",
"ooooooooo.. ......ooooooo.. XXX  XXX ..ooooooooo....  ..oooooooo",
"oooooooooo..     ..ooo....            ....ooo....     .ooooooooo",
"ooooooooooo...    ..... ....        .... .....      ...ooooooooo",
"ooooooooooooo..       ...oo.        .oo...         ..ooooooooooo",
"oooooooooooooo...    ..oooo..      ..oooo.       ...oooooooooooo",
"oooooooooooooooo..  ..oooooo.      .ooooo..    ...oooooooooooooo",
"ooooooooooooooooo.. .ooooooo.      .oooooo..  ..oooooooooooooooo",
"oooooooooooooooooo...ooooo...      ...ooooo....ooooooooooooooooo",
"oooooooooooooooooooooooooo.   ....   .oooooooooooooooooooooooooo",
"oooooooooooooooooooooooooo.. ..oo.. ..oooooooooooooooooooooooooo",
"ooooooooooooooooooooooooooo...oooo...ooooooooooooooooooooooooooo",
"ooooooooooooooooooooooooooo..oooooo..ooooooooooooooooooooooooooo",
"ooooooooooooooooooooooooooo..oooooo..ooooooooooooooooooooooooooo",
"oooooooooooooooooooooooooooooooooooooooooooooooooooooooooooooooo",
"oooooooooooooooooooooooooooooooooooooooooooooooooooooooooooooooo",
"oooooooooooooooooooooooooooooooooooooooooooooooooooooooooooooooo",
"oooooooooooooooooooooooooooooooooooooooooooooooooooooooooooooooo",
"oooooooooooooooooooooooooooooooooooooooooooooooooooooooooooooooo",
"oooooooooooooooooooooooooooooooooooooooooooooooooooooooooooooooo",
"oooooooooooooooooooooooooooooooooooooooooooooooooooooooooooooooo",
"oooooooooooooooooooooooooooooooooooooooooooooooooooooooooooooooo",
"oooooooooooooooooooooooooooooooooooooooooooooooooooooooooooooooo",
"oooooooooooooooooooooooooooooooooooooooooooooooooooooooooooooooo",
"oooooooooooooooooooooooooooooooooooooooooooooooooooooooooooooooo",
"oooooooooooooooooooooooooooooooooooooooooooooooooooooooooooooooo",
"oooooooooooooooooooooooooooooooooooooooooooooooooooooooooooooooo",
"oooooooooooooooooooooooooooooooooooooooooooooooooooooooooooooooo",
"oooooooooooooooooooooooooooooooooooooooooooooooooooooooooooooooo",
"oooooooooooooooooooooooooooooooooooooooooooooooooooooooooooooooo",
"oooooooooooooooooooooooooooooooooooooooooooooooooooooooooooooooo",
"oooooooooooooooooooooooooooooooooooooooooooooooooooooooooooooooo",
"oooooooooooooooooooooooooooooooooooooooooooooooooooooooooooooooo",
"oooooooooooooooooooooooooooooooooooooooooooooooooooooooooooooooo",
"oooooooooooooooooooooooooooooooooooooooooooooooooooooooooooooooo",
"oooooooooooooooooooooooooooooooooooooooooooooooooooooooooooooooo",
"oooooooooooooooooooooooooooooooooooooooooooooooooooooooooooooooo",
"oooooooooooooooooooooooooooooooooooooooooooooooooooooooooooooooo",
"oooooooooooooooooooooooooooooooooooooooooooooooooooooooooooooooo",
"oooooooooooooooooooooooooooooooooooooooooooooooooooooooooooooooo",
"oooooooooooooooooooooooooooooooooooooooooooooooooooooooooooooooo",
"oooooooooooooooooooooooooooooooooooooooooooooooooooooooooooooooo"
};
