/* XPM */
static char *_23b412d144c4581d3f1b2f1bac1becbRmTsUfWXcNnHucz0[] = {
/* columns rows colors chars-per-pixel */
"64 64 6 1 ",
"  c #020202",
". c gray2",
"X c #161008",
"o c #1A130B",
"O c #FE0C0C",
"+ c #9A692D",
/* pixels */
"++++++++++++++++++++++++++++++++++++++++++++++++++++++++++++++++",
"++++++++++++++++++++++++++++++++++++++++++++++++++++++++++++++++",
"++++++++++++++++++++++++++++++++++++++++++++++++++++++++++++++++",
"++++++++++++++++++++++++++++++++++++++++++++++++++++++++++++++++",
"++++++++++++++++++++++++++++++++++++++++++++++++++++++++++++++++",
"++++++++++++++++++++++++++++++++++++++++++++++++++++++++++++++++",
"++++++++++++++++++++++++++++++++++++++++++++++++++++++++++++++++",
"++++++++++++++++++++++++++++++++++++++++++++++++++++++++++++++++",
"++++++++++++++++++++++++++++++++++++++++++++++++++++++++++++++++",
"++++++++++++++++++++++++++++++++++++++++++++++++++++++++++++++++",
"++++++++++++++++++++++++++++++++++++++++++++++++++++++++++++++++",
"++++++++++++++++++++++++++++++++++++++++++++++++++++++++++++++++",
"++++++++++++++++++++++++++++++++++++++++++++++++++++++++++++++++",
"++++++++++++++++++++++++++++++++++++++++++++++++++++++++++++++++",
"++++++++++++++++++++++++++++++++++++++++++++++++++++++++++++++++",
"++++++++++++++oooo++++++++++++++++++++++++++++++oo++++++++++++++",
"+++++++++++++oo..o+++++++++++++++++++++++++++++ooo++++++++++++++",
"++++++++++++++oo.oo+++++++++++++++++++++++++++oooo++++++++++++++",
"+++++++++++++++o..oo++++++++++++++++++++++++++o.o+++++++++++++++",
"+++++++++++++++o...o+++++++++++++++++++++++++oo.o+++++++++++++++",
"+++++++++++++++o...oo++++++++++++++++++++++++o..o+++++++++++++++",
"+++++++++++++++oo...oo++++++++++++++++++++++oo..o+++++++++++++++",
"++++++++++++++++oo..oo+++++++++++++++++++++oo...o+++++++++++++++",
"+++++++++++++++++oo.o+++++++++++++++++++++oo..ooo+++++++++++++++",
"++++++++++++++++++o.o++++++++++++++++++++oo...o+++++++++++++++++",
"+++++++++++++++++oo.oo+++++++++++++++++++o....o+++++++++++++++++",
"++++++++++++++++oo...oo++++++++++++++++++o....oo++++++++++++++++",
"++++++++++++++++ooo...o+++XX++++++++XX+++o....o+++++++++++++++++",
"++++++++++++++++o+o...o+++XX++++++++XX+++o...oo+++++++++++++++++",
"++++++++++++++++++o...ooo+XXXXXXXXXXXX+++o..oo++++++++++++++++++",
"++++++++++++++++++o.....ooX          X+ooo..o+++++++++++++++++++",
"++++++++++++++++++o.......  OOO  OOO Xoo...oo+++++++++++++++++++",
"++++++++++++++++++o......   OOO  OOO   ....o++++++++++++++++++++",
"++++++++++++++++++oo...                   .o++++++++++++++++++++",
"+++++++++++++++++++oo.. XXXX        XXXXXXoo++++++++++++++++++++",
"++++++++++++++++++++ooooX++X        X+++++++++++++++++++++++++++",
"+++++++++++++++++++++++++++XX      XX+++++++++++++++++++++++++++",
"++++++++++++++++++++++++++++X      X++++++++++++++++++++++++++++",
"++++++++++++++++++++++++++++X      X++++++++++++++++++++++++++++",
"++++++++++++++++++++++++++XXX      XXX++++++++++++++++++++++++++",
"++++++++++++++++++++++++++X   XXXX   X++++++++++++++++++++++++++",
"++++++++++++++++++++++++++XX XX++XX XX++++++++++++++++++++++++++",
"+++++++++++++++++++++++++++XXX++++XXX+++++++++++++++++++++++++++",
"+++++++++++++++++++++++++++XX++++++XX+++++++++++++++++++++++++++",
"+++++++++++++++++++++++++++XX++++++XX+++++++++++++++++++++++++++",
"++++++++++++++++++++++++++++++++++++++++++++++++++++++++++++++++",
"++++++++++++++++++++++++++++++++++++++++++++++++++++++++++++++++",
"++++++++++++++++++++++++++++++++++++++++++++++++++++++++++++++++",
"++++++++++++++++++++++++++++++++++++++++++++++++++++++++++++++++",
"++++++++++++++++++++++++++++++++++++++++++++++++++++++++++++++++",
"++++++++++++++++++++++++++++++++++++++++++++++++++++++++++++++++",
"++++++++++++++++++++++++++++++++++++++++++++++++++++++++++++++++",
"++++++++++++++++++++++++++++++++++++++++++++++++++++++++++++++++",
"++++++++++++++++++++++++++++++++++++++++++++++++++++++++++++++++",
"++++++++++++++++++++++++++++++++++++++++++++++++++++++++++++++++",
"++++++++++++++++++++++++++++++++++++++++++++++++++++++++++++++++",
"++++++++++++++++++++++++++++++++++++++++++++++++++++++++++++++++",
"++++++++++++++++++++++++++++++++++++++++++++++++++++++++++++++++",
"++++++++++++++++++++++++++++++++++++++++++++++++++++++++++++++++",
"++++++++++++++++++++++++++++++++++++++++++++++++++++++++++++++++",
"++++++++++++++++++++++++++++++++++++++++++++++++++++++++++++++++",
"++++++++++++++++++++++++++++++++++++++++++++++++++++++++++++++++",
"++++++++++++++++++++++++++++++++++++++++++++++++++++++++++++++++",
"++++++++++++++++++++++++++++++++++++++++++++++++++++++++++++++++"
};
