/* XPM */
static char *_509161af988468ac175267993d54f222DdJSGHn4GAVQUYx[] = {
/* columns rows colors chars-per-pixel */
"64 64 6 1 ",
"  c #020202",
". c gray2",
"X c #161008",
"o c #1A130B",
"O c #FE0C0C",
"+ c #9A692D",
/* pixels */
"++++++++++++++++++++++++++++++++++++++++++++++++++++++++++++++++",
"++++++++++++++++++++++++++++++++++++++++++++++++++++++++++++++++",
"++++++++++++++++++++++++++++++++++++++++++++++++++++++++++++++++",
"++++++++++++++++++++++++++++++++++++++++++++++++++++++++++++++++",
"++++++++++++++++++++++++++++++++++++++++++++++++++++++++++++++++",
"++++++++++++++++++++++++++++++++++++++++++++++++++++++++++++++++",
"++++++++++++++++++++++++++++++++++++++++++++++++++++++++++++++++",
"++++++++++++++++++++++++++++++++++++++++++++++++++++++++++++++++",
"++++++++++++++++++++++++++++++++++++++++++++++++++++++++++++++++",
"++++++++++++++++++++++++++++++++++++++++++++++++++++++++++++++++",
"++++++++++++++++++++++++++++++++++++++++++++++++++++++++++++++++",
"++++++++++++++++++++++++++++++++++++++++++++++++++++++++++++++++",
"++++++++++++++++++++++++++++++++++++++++++++++++++++++++++++++++",
"++++++++++++++++++++++++++++++++++++++++++++++++++++++++++++++++",
"++++++++++++++++++++++++++++++++++++++++++++++++++++++++++++++++",
"++++++++++++++++++++++++++++++++++++++++++++++++++++++++++++++++",
"++++++++++++++++++++++++++XX++++++++Xo++++++++++++++++++++++++++",
"++++++++++++++++++++++++++XX++++++++XX++++++++++++++++++++++++++",
"++++++++++++++++++++++++++XXXXXXXXXXXX++++++++++++++++++++++++++",
"++++++++++++++++++++++++++X          X++++++++++++++++++++++++++",
"++++++++++++++++++++++++ooX OOO  OOO Xoo++++++++++++++++++++++++",
"+++++++++++++++++++++++oo   OOO  OOO   oo+++++++++++++++++++++++",
"++++++++++++++++++++++oX                XX++++++++++++++++++++++",
"+++++++++++++++++++++ooXXXXX        XXXX.oo+++++++++++++++++++++",
"++++++++++++++++++++oo.o+++X        X++oo.oo++++++++++++++++++++",
"++++++++++++++++++++o..o+++XX      XX+++oo.oo+++++++++++++++++++",
"+++++++++++++++++++oo.oo++++X      X+++++oo.oo++++++++++++++++++",
"++++++++++++++++++oo.oo+++++X      X++++++o..o++++++++++++++++++",
"+++++++++++++++++oo.oo++++XXX      XXX+++oo..oo+++++++++++++++++",
"+++++++++++++++++o..o+++++X   XXXX   X++++oo..oo++++++++++++++++",
"+++++++++++++++++o.oo+++++XX XX++XX XX+++++oo.o+++++++++++++++++",
"+++++++++++++++++ooo+++++++XXX++++XXX+++++++ooo+++++++++++++++++",
"++++++++++++++++ooo++++++++XX++++++XX++++++++ooo++++++++++++++++",
"+++++++++++++++oo.o++++++++XX++++++XX++++++++o.oo+++++++++++++++",
"+++++++++++++++o.oo++++++++++++++++++++++++++o..o+++++++++++++++",
"+++++++++++++++ooo+++++++++++++++++++++++++++o..o+++++++++++++++",
"+++++++++++++++o+++++++++++++++++++++++++++++oooo+++++++++++++++",
"++++++++++++++oo++++++++++++++++++++++++++++++oo++++++++++++++++",
"++++++++++++++o+++++++++++++++++++++++++++++++oo++++++++++++++++",
"++++++++++++++o++++++++++++++++++++++++++++++++o++++++++++++++++",
"++++++++++++++++++++++++++++++++++++++++++++++++++++++++++++++++",
"++++++++++++++++++++++++++++++++++++++++++++++++++++++++++++++++",
"++++++++++++++++++++++++++++++++++++++++++++++++++++++++++++++++",
"++++++++++++++++++++++++++++++++++++++++++++++++++++++++++++++++",
"++++++++++++++++++++++++++++++++++++++++++++++++++++++++++++++++",
"++++++++++++++++++++++++++++++++++++++++++++++++++++++++++++++++",
"++++++++++++++++++++++++++++++++++++++++++++++++++++++++++++++++",
"++++++++++++++++++++++++++++++++++++++++++++++++++++++++++++++++",
"++++++++++++++++++++++++++++++++++++++++++++++++++++++++++++++++",
"++++++++++++++++++++++++++++++++++++++++++++++++++++++++++++++++",
"++++++++++++++++++++++++++++++++++++++++++++++++++++++++++++++++",
"++++++++++++++++++++++++++++++++++++++++++++++++++++++++++++++++",
"++++++++++++++++++++++++++++++++++++++++++++++++++++++++++++++++",
"++++++++++++++++++++++++++++++++++++++++++++++++++++++++++++++++",
"++++++++++++++++++++++++++++++++++++++++++++++++++++++++++++++++",
"++++++++++++++++++++++++++++++++++++++++++++++++++++++++++++++++",
"++++++++++++++++++++++++++++++++++++++++++++++++++++++++++++++++",
"++++++++++++++++++++++++++++++++++++++++++++++++++++++++++++++++",
"++++++++++++++++++++++++++++++++++++++++++++++++++++++++++++++++",
"++++++++++++++++++++++++++++++++++++++++++++++++++++++++++++++++",
"++++++++++++++++++++++++++++++++++++++++++++++++++++++++++++++++",
"++++++++++++++++++++++++++++++++++++++++++++++++++++++++++++++++",
"++++++++++++++++++++++++++++++++++++++++++++++++++++++++++++++++",
"++++++++++++++++++++++++++++++++++++++++++++++++++++++++++++++++"
};
