/* XPM */
static char *a692b56e89ae4a7ec3a070a1a99c97cbxvD2Rijv5kPZwJWd[] = {
/* columns rows colors chars-per-pixel */
"64 64 9 1 ",
"  c black",
". c #010002",
"X c #140D07",
"o c #430963",
"O c #631C72",
"+ c #9A692D",
"@ c #570C80",
"# c #16419C",
"$ c #1F5AD7",
/* pixels */
"++++++++++++++++++++++++++++++++++++++++++++++++++++++++++++++++",
"++++++++++++++++++++++++++++++++++++++++++++++++++++++++++++++++",
"++++++++++++++++++++++++++++++++++++++++++++++++++++++++++++++++",
"++++++++++++++++++++++++++++++++++++++++++++++++++++++++++++++++",
"++++++++++++++++++++++++++++++XXXXX+++++++++++++++++++++++++++++",
"+++++++++++++++++++++++++++++++++XX+++++++++++++++++++++++++++++",
"+++++++++++++++++++++++++++++++XXX++++++XXXXXXX+++++++++++++++++",
"+++++++++++++++++++++++++++++XX++++++++++++XXX++++++++++++++++++",
"+++++++++++++++++++++++++++XX++++++++++++XXX++++++++++++++++++++",
"+++++++++++++++++++++++++++XXXXXXX++++++XX++++++++++++++++++++++",
"++++++++++++++++++++++++++++++++++++++XXX+++++++++++++++++++++++",
"++++++++++++++++++++++++++++++++++++++XXXXXXXXXX++++++++++++++++",
"++++++++++++++++++++++++++++++++++++++++++++++++++++++++++++++++",
"++++++++++++++++++++++++++++++++++++++++++++++++++++++++++++++++",
"++++++++++++++++++++++++++++++++++++++++++++++++++++++++++++++++",
"++++++++++++++++++++++++++++++++++++++++++++++++++++++++++++++++",
"++++++++++++++++++++++++++++++++++++++++++++++++++++++++++++++++",
"++++++++++++++++++++++++++++++++++++++++++++XXXXXXX+++++++++++++",
"+++++++++++++++++++++++++++++OOOOOOO++++++++++X X+++++++++++++++",
"++++++++++++++++++++++++++OOOO@@@@@OOO+++++++XXXXXX+++++++++++++",
"++++++++++++++++++++++++OOO@@@@@@@@@@OO+++++++++++++++++++++++++",
"++++++++++++++++++++++++O@@@@@@@@@@@@@OO++++++++++++++++++++++++",
"+++++++++++++++++++++++OO@@@@@@@@@@@@@@OO+++++++++++++++++++++++",
"++++++++++++++++++++++OO@@@@@@@@@@@@@@@@OO++++++++++++++++++++++",
"++++++++++++++++++++++Oooo@@ooooooo@@@@@@O++++++++++++++++++++++",
"+++++++++++++++++++++OOo oooo oo  oo@ooooO++++++++++++++++++++++",
"++++++++++++++++++++OO@o  oo  ooo  ooo  oO++++++++++++++++++++++",
"+++++++++++++++++++OO@@oo    oo@oo     ooOO+++++++++++++++++++++",
"+++++++++++++++++++O@@@@oooooo@@@ooooooo@@OO++++++++++++++++++++",
"+++++++++++++++++++O@@@@@@@@@@@@@@@@@@@@@@@OO+++++++++++++++++++",
"+++++++++++++++++++O@@@@@@@@@ooooo@@@@@@@@@@O+++++++++++++++++++",
"++++++++++++++++++OO@@@@@@@@@o   ooo@@@@@@@@OO++++++++++++++++++",
"++++++++++++++++++O@@@@@@@@@oo     o@@@@@@@@@OO+++++++++++++++++",
"++++++++++++++++++O@@@@@@@@@o      oo@@@@@@@@@O+++++++++++++++++",
"++++++++++++++++++O@@@@@@@@@o       o@@@@@@@@@O+++++++++++++++++",
"++++++++++++++++++O@@@@@@@@@o       o@@@@@@@@@O+++++++++++++++++",
"+++++++++++++++++OO@@@@@@@@@o       o@@@@@@@@@OO++++++++++++++++",
"+++++++++++++++++O@@@@@@@@@@o      ##@@@@@@@@@@OO+++++++++++++++",
"++++++++++++++++OO@@@@@@@@@@ooo   ##$@@@@@@@@@@@OO++++++++++++++",
"++++++++++++++++O@@@@@@@@@@@@@ooooo$$@@@@@@@@@@@@OO+++++++++++++",
"++++++++++++++++O@@@@@@@@@@@@@@@@@@$$@@@@@@@@@@@@@OO++++++++++++",
"+++++++++++++++OO@@@@@@@@@@@@@@@@@@@$@@@@@@@@@@@@@@OO+++++++++++",
"++++++++++++++OO@@@@@@@@@@@@@@@@@@@@$$@@@@@@@@@@@@@@O+++++++++++",
"+++++++++++++OO@@@@@@@@@@@@@@@@@@@@@@$@@@@@@@@@@@@@@O+++++++++++",
"++++++++++++OO@@@@@@@@@@@@@@@@@@@@@@@@@@@@@@@@@@@@@@O+++++++++++",
"++++++++++++OOOOOOOOOOOOOOOO@@@@@@@@@@@@@@@@@@OOOOOOO+++++++++++",
"+++++++++++++++++++++++++++OO@@OOOOOOO@@@@@@OOO++++O++++++++++++",
"++++++++++++++++++++++++++++OOOO+++++OOOOOOOO+++++++++++++++++++",
"++++++++++++++++++++++++++++++++++++++++++++++++++++++++++++++++",
"++++++++++++++++++++++++++++++++++++++++++++++++++++++++++++++++",
"++++++++++++++++++++++++++++++++++++++++++++++++++++++++++++++++",
"++++++++++++++++++++++++++++++++++++++++++++++++++++++++++++++++",
"++++++++++++++++++++++++++++++++++++++++++++++++++++++++++++++++",
"++++++++++++++++++++++++++++++++++++++++++++++++++++++++++++++++",
"++++++++++++++++++++++++++++++++++++++++++++++++++++++++++++++++",
"++++++++++++++++++++++++++++++++++++++++++++++++++++++++++++++++",
"++++++++++++++++++++++++++++++++++++++++++++++++++++++++++++++++",
"++++++++++++++++++++++++++++++++++++++++++++++++++++++++++++++++",
"++++++++++++++++++++++++++++++++++++++++++++++++++++++++++++++++",
"++++++++++++++++++++++++++++++++++++++++++++++++++++++++++++++++",
"++++++++++++++++++++++++++++++++++++++++++++++++++++++++++++++++",
"++++++++++++++++++++++++++++++++++++++++++++++++++++++++++++++++",
"++++++++++++++++++++++++++++++++++++++++++++++++++++++++++++++++",
"++++++++++++++++++++++++++++++++++++++++++++++++++++++++++++++++"
};
