/* XPM */
static char *_09a4c247c0e409a9064222029b7e558KMGBkQpRjb3aR9j6[] = {
/* columns rows colors chars-per-pixel */
"64 64 9 1 ",
"  c black",
". c #171109",
"X c #2C1F0F",
"o c #430963",
"O c #631C72",
"+ c #9A692D",
"@ c #570C80",
"# c #16419C",
"$ c #1F5AD7",
/* pixels */
"++++++++++++++++++++++++++++++++++++++++++++++++++++++++++++++++",
"++++++++++++++++++++++++++++++++++++++++++++++++++++++++++++++++",
"++++++++++++++++++++++++++++++++++++++++++++++++++++++++++++++++",
"++++++++++++++++++++++++++++++++++++++++++++++++++++++++++++++++",
"++++++++++++++++++++++++++++++++++++++++++++++++++++++++++++++++",
"++++++++++++++++++++++++++++++++++++++++++++++++++++++++++++++++",
"++++++++++++++++++++++++++++++++++++++++++++++++++++++++++++++++",
"++++++++++++++++++++++++++++++++++++++++++++++++++++++++++++++++",
"++++++++++++++++++++++++++++++......++++.........+++++++++++++++",
"+++++++++++++++++++++++++++++++...++++++++++++....++++++++++++++",
"++++++++++++++++++++++++++++...++++++++++++....+++++++++++++++++",
"++++++++++++++++++++++++++...++++++++++++......+++++++++++++++++",
"++++++++++++++++++++++++++.........+++++++++++...+++++++++++++++",
"++++++++++++++++++++++++++++++++++++++++++++++++++++++++++++++++",
"++++++++++++++++++++++++++++++++++++++++++++++++++++++++++++++++",
"++++++++++++++++++++++++++++++++++++++++++++++++++++++++++++++++",
"++++++++++++++++++++++++++++++++++++++++++++++++++++++++++++++++",
"++++++++++++++++++++++++++++++++++++++++++++++++.XXX++++++++++++",
"+++++++++++++++++++++++++++++OOOOOOO++++++++++++.++X..++++++++++",
"++++++++++++++++++++++++++OOOO@@@@@OOO+++++++++++XXX.+++++++++++",
"++++++++++++++++++++++++OOO@@@@@@@@@@OO++++++++...++++++++++++++",
"++++++++++++++++++++++++O@@@@@@@@@@@@@OO++++++..++++++++++++++++",
"+++++++++++++++++++++++OO@@@@@@@@@@@@@@OO+++++........++++++++++",
"++++++++++++++++++++++OO@@@@@@@@@@@@@@@@OO++++++++++++++++++++++",
"++++++++++++++++++++++Oooo@@ooooooo@@@@@@O++++++++++++++++++++++",
"+++++++++++++++++++++OOo oooo oo  oo@ooooO++++++++++++++++++++++",
"++++++++++++++++++++OO@o  oo  ooo  ooo  oO++++++++++++++++++++++",
"+++++++++++++++++++OO@@oo    oo@oo     ooOO+++++++++++++++++++++",
"+++++++++++++++++++O@@@@oooooo@@@ooooooo@@OO++++++++++++++++++++",
"+++++++++++++++++++O@@@@@@@@@@@@@@@@@@@@@@@OO+++++++++++++++++++",
"+++++++++++++++++++O@@@@@@@@@ooooo@@@@@@@@@@O+++++++++++++++++++",
"++++++++++++++++++OO@@@@@@@@@o   ooo@@@@@@@@OO++++++++++++++++++",
"++++++++++++++++++O@@@@@@@@@oo     o@@@@@@@@@OO+++++++++++++++++",
"++++++++++++++++++O@@@@@@@@@o      oo@@@@@@@@@O+++++++++++++++++",
"++++++++++++++++++O@@@@@@@@@o       o@@@@@@@@@O+++++++++++++++++",
"++++++++++++++++++O@@@@@@@@@o       o@@@@@@@@@O+++++++++++++++++",
"+++++++++++++++++OO@@@@@@@@@o       o@@@@@@@@@OO++++++++++++++++",
"+++++++++++++++++O@@@@@@@@@@o      ##@@@@@@@@@@OO+++++++++++++++",
"++++++++++++++++OO@@@@@@@@@@ooo   ##$@@@@@@@@@@@OO++++++++++++++",
"++++++++++++++++O@@@@@@@@@@@@@ooooo$$@@@@@@@@@@@@OO+++++++++++++",
"++++++++++++++++O@@@@@@@@@@@@@@@@@@$$@@@@@@@@@@@@@OO++++++++++++",
"+++++++++++++++OO@@@@@@@@@@@@@@@@@@@$@@@@@@@@@@@@@@OO+++++++++++",
"++++++++++++++OO@@@@@@@@@@@@@@@@@@@@$$@@@@@@@@@@@@@@O+++++++++++",
"+++++++++++++OO@@@@@@@@@@@@@@@@@@@@@@$@@@@@@@@@@@@@@O+++++++++++",
"++++++++++++OO@@@@@@@@@@@@@@@@@@@@@@@@@@@@@@@@@@@@@@O+++++++++++",
"++++++++++++OOOOOOOOOOOOOOOO@@@@@@@@@@@@@@@@@@OOOOOOO+++++++++++",
"+++++++++++++++++++++++++++OO@@OOOOOOO@@@@@@OOO++++O++++++++++++",
"++++++++++++++++++++++++++++OOOO+++++OOOOOOOO+++++++++++++++++++",
"++++++++++++++++++++++++++++++++++++++++++++++++++++++++++++++++",
"++++++++++++++++++++++++++++++++++++++++++++++++++++++++++++++++",
"++++++++++++++++++++++++++++++++++++++++++++++++++++++++++++++++",
"++++++++++++++++++++++++++++++++++++++++++++++++++++++++++++++++",
"++++++++++++++++++++++++++++++++++++++++++++++++++++++++++++++++",
"++++++++++++++++++++++++++++++++++++++++++++++++++++++++++++++++",
"++++++++++++++++++++++++++++++++++++++++++++++++++++++++++++++++",
"++++++++++++++++++++++++++++++++++++++++++++++++++++++++++++++++",
"++++++++++++++++++++++++++++++++++++++++++++++++++++++++++++++++",
"++++++++++++++++++++++++++++++++++++++++++++++++++++++++++++++++",
"++++++++++++++++++++++++++++++++++++++++++++++++++++++++++++++++",
"++++++++++++++++++++++++++++++++++++++++++++++++++++++++++++++++",
"++++++++++++++++++++++++++++++++++++++++++++++++++++++++++++++++",
"++++++++++++++++++++++++++++++++++++++++++++++++++++++++++++++++",
"++++++++++++++++++++++++++++++++++++++++++++++++++++++++++++++++",
"++++++++++++++++++++++++++++++++++++++++++++++++++++++++++++++++"
};
