/* XPM */
static char *_b7a64019a9346e2fe4afef8af646528vlY1R2fMyThr5c7J[] = {
/* columns rows colors chars-per-pixel */
"64 64 8 1 ",
"  c black",
". c #130D06",
"X c #430963",
"o c #631C72",
"O c #9A692D",
"+ c #570C80",
"@ c #16419C",
"# c #1F5AD7",
/* pixels */
"OOOOOOOOOOOOOOOOOOOOOOOOOOOOOOOOOOOOOOOOOOOOOOOOOOOOOOOOOOOOOOOO",
"OOOOOOOOOOOOOOOOOOOOOOOOOOOOOOOOOOOOOOOOOOOOOOOOOOOOOOOOOOOOOOOO",
"OOOOOOOOOOOOOOOOOOOOOOOOOOOOOOOOOOOOOOO......OOOOOOOOOOOOOOOOOOO",
"OOOOOOOOOOOOOOOOOOOOOOOOOOOOOOOOOOOOOOOOOOOOO...OOOOOOOOOOOOOOOO",
"OOOOOOOOOOOOOOOOOOOOOOOOOOOOOOOOOOOOOOOOO.....OOOOOOOOOOOOOOOOOO",
"OOOOOOOOOOOOOOOOOOOOOOOOOOOOOOOOOOOOO....OOOOOOOOOOOOOOOOOOOOOOO",
"OOOOOOOOOOOOOOOOOOOOOOOOOOOOOOOOOOOOO.............OOOOOOOOOOOOOO",
"OOOOOOOOOOOOOOOOOOOOOOOOOOOOOOOOOOOOOOOOOOOOOOOOOOOOOOOOOOOOOOOO",
"OOOOOOOOOOOOOOOOOOOOOOOOOOOOOOOOOOOOOOOOOOOOOOOOOOOOOOOOOOOOOOOO",
"OOOOOOOOOOOOOOOOOOOOOOOOOOOOOOOOOOOOOOOOOOOOOOOOOOOOOOOOOOOOOOOO",
"OOOOOOOOOOOOOOOO..........OOOOOOOOOOOOOOOOOOOOOOOOOOOOOOOOOOOOOO",
"OOOOOOOOOOOOOOOOOOOOO...OOOOOOOOOOOOOOOOOOOOOOOOOOOOOOOOOOOOOOOO",
"OOOOOOOOOOOOOOOOOOO...OOOOOOOOOOOOOOOOOOOOOOOOOOOOOOOOOOOOOOOOOO",
"OOOOOOOOOOOOOOOOO...OOOOOOOOOOOOOOOOOOOOOOOOOOOOOOOOOOOOOOOOOOOO",
"OOOOOOOOOOOOOOOO..OOO....OOOOOOOOOOOOOOOOOOOOOOOOOOOOOOOOOOOOOOO",
"OOOOOOOOOOOOOOOO.....OOOOOOOOOOOOOOOOOOOOOOOOOOOO..........OOOOO",
"OOOOOOOOOOOOOOOOOOOOOOOOOOOOOOOOOOOOOOOOOOOOOOOOOOOOO....OOOOOOO",
"OOOOOOOOOOOOOOOOOOOOOOOOOOOOOOOOOOOOOOOOOOOOOOOOOO....OOOOOOOOOO",
"OOOOOOOOOOOOOOOOOOOOOOOOOOOOOoooooooOOOOOOOOOOOOO..OOOOOOOOOOOOO",
"OOOOOOOOOOOOOOOOOOOOOOOOOOoooo+++++oooOOOOOOOOOOO............OOO",
"OOOOOOOOOOOOOOOOOOOOOOOOooo++++++++++ooOOOOOOOOOOOOOOOOOOOOOOOOO",
"OOOOOOOOOOOOOOOOOOOOOOOOo+++++++++++++ooOOOOOOOOOOOOOOOOOOOOOOOO",
"OOOOOOOOOOOOOOOOOOOOOOOoo++++++++++++++ooOOOOOOOOOOOOOOOOOOOOOOO",
"OOOOOOOOOOOOOOOOOOOOOOoo++++++++++++++++ooOOOOOOOOOOOOOOOOOOOOOO",
"OOOOOOOOOOOOOOOOOOOOOOoXXX++XXXXXXX++++++oOOOOOOOOOOOOOOOOOOOOOO",
"OOOOOOOOOOOOOOOOOOOOOooX XXXX XX  XX+XXXXoOOOOOOOOOOOOOOOOOOOOOO",
"OOOOOOOOOOOOOOOOOOOOoo+X  XX  XXX  XXX  XoOOOOOOOOOOOOOOOOOOOOOO",
"OOOOOOOOOOOOOOOOOOOoo++XX    XX+XX     XXooOOOOOOOOOOOOOOOOOOOOO",
"OOOOOOOOOOOOOOOOOOOo++++XXXXXX+++XXXXXXX++ooOOOOOOOOOOOOOOOOOOOO",
"OOOOOOOOOOOOOOOOOOOo+++++++++++++++++++++++ooOOOOOOOOOOOOOOOOOOO",
"OOOOOOOOOOOOOOOOOOOo+++++++++XXXXX++++++++++oOOOOOOOOOOOOOOOOOOO",
"OOOOOOOOOOOOOOOOOOoo+++++++++X   XXX++++++++ooOOOOOOOOOOOOOOOOOO",
"OOOOOOOOOOOOOOOOOOo+++++++++XX     X+++++++++ooOOOOOOOOOOOOOOOOO",
"OOOOOOOOOOOOOOOOOOo+++++++++X      XX+++++++++oOOOOOOOOOOOOOOOOO",
"OOOOOOOOOOOOOOOOOOo+++++++++X       X+++++++++oOOOOOOOOOOOOOOOOO",
"OOOOOOOOOOOOOOOOOOo+++++++++X       X+++++++++oOOOOOOOOOOOOOOOOO",
"OOOOOOOOOOOOOOOOOoo+++++++++X       X+++++++++ooOOOOOOOOOOOOOOOO",
"OOOOOOOOOOOOOOOOOo++++++++++X      @@++++++++++ooOOOOOOOOOOOOOOO",
"OOOOOOOOOOOOOOOOoo++++++++++XXX   @@#+++++++++++ooOOOOOOOOOOOOOO",
"OOOOOOOOOOOOOOOOo+++++++++++++XXXXX##++++++++++++ooOOOOOOOOOOOOO",
"OOOOOOOOOOOOOOOOo++++++++++++++++++##+++++++++++++ooOOOOOOOOOOOO",
"OOOOOOOOOOOOOOOoo+++++++++++++++++++#++++++++++++++ooOOOOOOOOOOO",
"OOOOOOOOOOOOOOoo++++++++++++++++++++##++++++++++++++oOOOOOOOOOOO",
"OOOOOOOOOOOOOoo++++++++++++++++++++++#++++++++++++++oOOOOOOOOOOO",
"OOOOOOOOOOOOoo++++++++++++++++++++++++++++++++++++++oOOOOOOOOOOO",
"OOOOOOOOOOOOoooooooooooooooo++++++++++++++++++oooooooOOOOOOOOOOO",
"OOOOOOOOOOOOOOOOOOOOOOOOOOOoo++ooooooo++++++oooOOOOoOOOOOOOOOOOO",
"OOOOOOOOOOOOOOOOOOOOOOOOOOOOooooOOOOOooooooooOOOOOOOOOOOOOOOOOOO",
"OOOOOOOOOOOOOOOOOOOOOOOOOOOOOOOOOOOOOOOOOOOOOOOOOOOOOOOOOOOOOOOO",
"OOOOOOOOOOOOOOOOOOOOOOOOOOOOOOOOOOOOOOOOOOOOOOOOOOOOOOOOOOOOOOOO",
"OOOOOOOOOOOOOOOOOOOOOOOOOOOOOOOOOOOOOOOOOOOOOOOOOOOOOOOOOOOOOOOO",
"OOOOOOOOOOOOOOOOOOOOOOOOOOOOOOOOOOOOOOOOOOOOOOOOOOOOOOOOOOOOOOOO",
"OOOOOOOOOOOOOOOOOOOOOOOOOOOOOOOOOOOOOOOOOOOOOOOOOOOOOOOOOOOOOOOO",
"OOOOOOOOOOOOOOOOOOOOOOOOOOOOOOOOOOOOOOOOOOOOOOOOOOOOOOOOOOOOOOOO",
"OOOOOOOOOOOOOOOOOOOOOOOOOOOOOOOOOOOOOOOOOOOOOOOOOOOOOOOOOOOOOOOO",
"OOOOOOOOOOOOOOOOOOOOOOOOOOOOOOOOOOOOOOOOOOOOOOOOOOOOOOOOOOOOOOOO",
"OOOOOOOOOOOOOOOOOOOOOOOOOOOOOOOOOOOOOOOOOOOOOOOOOOOOOOOOOOOOOOOO",
"OOOOOOOOOOOOOOOOOOOOOOOOOOOOOOOOOOOOOOOOOOOOOOOOOOOOOOOOOOOOOOOO",
"OOOOOOOOOOOOOOOOOOOOOOOOOOOOOOOOOOOOOOOOOOOOOOOOOOOOOOOOOOOOOOOO",
"OOOOOOOOOOOOOOOOOOOOOOOOOOOOOOOOOOOOOOOOOOOOOOOOOOOOOOOOOOOOOOOO",
"OOOOOOOOOOOOOOOOOOOOOOOOOOOOOOOOOOOOOOOOOOOOOOOOOOOOOOOOOOOOOOOO",
"OOOOOOOOOOOOOOOOOOOOOOOOOOOOOOOOOOOOOOOOOOOOOOOOOOOOOOOOOOOOOOOO",
"OOOOOOOOOOOOOOOOOOOOOOOOOOOOOOOOOOOOOOOOOOOOOOOOOOOOOOOOOOOOOOOO",
"OOOOOOOOOOOOOOOOOOOOOOOOOOOOOOOOOOOOOOOOOOOOOOOOOOOOOOOOOOOOOOOO"
};
