/* XPM */
static char *d6a95a0b0ecf46aaa9fa1aabd23809fcFUvSXGmuKSSN2ftQ[] = {
/* columns rows colors chars-per-pixel */
"64 64 19 1 ",
"  c black",
". c #010101",
"X c gray2",
"o c #060606",
"O c #080807",
"+ c #130E08",
"@ c #5D3F1B",
"# c #60421D",
"$ c #62431E",
"% c #65461F",
"& c #724E22",
"* c #6E6A66",
"= c #9A692D",
"- c #C3A580",
"; c #D7C3A9",
": c #D1C2B0",
"> c #E4CDB1",
", c #FBF9F6",
"< c gray98",
/* pixels */
"================================================================",
"================================================================",
"================================================================",
"================================================================",
"================================================================",
"================================================================",
"================================================================",
"================================================================",
"================================================================",
"================================================================",
"================================================================",
"================================================================",
"================================================================",
"================================================================",
"================================================================",
"================================================================",
"================================================================",
"================================================================",
"================================================================",
"================================================================",
"=========================@@@=@@@================================",
"=========================@*@@@*@================================",
"=======================@@@*****@@@==============================",
"======================@@********@@==============================",
"======================@*********@===============================",
"====================@@@**::::***@===============================",
"====================@***:;::;:**@@==============================",
"====================@@@*:OX:OX@@@===============================",
"======================@*::::::@=================================",
"======================@@@:OO@@@=================================",
"========================<::>@===================================",
"======================@@@XXX@@@@@@=<,,,,,,,,,===================",
"====================@    <<<    >@@@============================",
"===================#  @@ <<< @@@@@@=============================",
"==================#  #=@ <<< @==================================",
"==================-#===@ <<< @==================================",
"==================-====@ <<< @==================================",
"=======================@ ,,, @==================================",
"=======================@     @==================================",
"=======================@     @==================================",
"=======================#######==================================",
"===================&%%%%=====&#%%&==============================",
"===================&+++&=====&+++&==============================",
"===================#####=====#####==============================",
"================================================================",
"================================================================",
"================================================================",
"================================================================",
"================================================================",
"================================================================",
"================================================================",
"================================================================",
"================================================================",
"================================================================",
"================================================================",
"================================================================",
"================================================================",
"================================================================",
"================================================================",
"================================================================",
"================================================================",
"================================================================",
"================================================================",
"================================================================"
};
