/* XPM */
static char *_823a78fbada4fc2b09ed001b90f5f3cEqf1gDuQJjZl75oj[] = {
/* columns rows colors chars-per-pixel */
"64 64 2 1 ",
"  c black",
". c #9A692D",
/* pixels */
"................................................................",
"................................................................",
"................................................................",
"......                                                   .......",
".....                                                     ......",
"....                                                       .....",
"....                                                        ....",
"....                                                        ....",
"....                                                        ....",
"....                                                        ....",
"....                                                        ....",
"...                                                         ....",
"...                                                         ....",
"...                                                         ....",
"...                                                         ....",
"...                                                         ....",
"...                                                         ....",
"...                                                         ....",
"...                                                         ....",
"...                                                         ....",
"....                                                        ....",
"....                                                        ....",
"....                                                        ....",
"....                                                        ....",
"....                                                        ....",
"....                                                        ....",
"....                                                        ....",
"....                                                        ....",
"....                                                        ....",
"....                                                        ....",
"....                                                        ....",
"....                                                        ....",
"....                                                        ....",
"....                                                        ....",
"....                                                        ....",
"....                                                        ....",
"....                                                        ....",
"....                                                        ....",
"....                                                        ....",
"....                                                        ....",
"....                                                        ....",
"....                                                        ....",
"....                                                        ....",
"....                                                        ....",
"....                                                        ....",
"....                                                        ....",
"....                                                        ....",
"....                                                        ....",
"....                                                        ....",
"....                                                        ....",
"....                                                        ....",
"....                                                        ....",
"....                                                        ....",
"....                                                        ....",
"....                                                        ....",
"....                                                        ....",
"....                                                        ....",
"....                                                        ....",
"....                                                        ....",
".....                                                       ....",
"......                                                     .....",
".......       .....................................       ......",
"................................................................",
"................................................................"
};
